<?xml version="1.0" encoding="UTF-8"?>
<svg version="1.1" xmlns="http://www.w3.org/2000/svg" width="173" height="211">
<path d="M0 0 C0.66 0 1.32 0 2 0 C3.74943222 2.02581822 5.38285746 4.05944704 7 6.1875 C7.73476563 7.13882812 7.73476563 7.13882812 8.484375 8.109375 C9.9955318 10.06842621 11.49827372 12.03371449 13 14 C13.85364969 15.11107447 14.70778671 16.22177476 15.5625 17.33203125 C17.1515772 19.39732229 18.72934267 21.47138151 20.29397583 23.55525208 C22.04484817 25.8419997 23.87194523 27.97388126 25.85031128 30.06596375 C34.36455288 39.35097468 35.56072631 46.64544509 35.2578125 58.95703125 C35.25719368 60.63857046 35.26159014 62.32011816 35.27072144 64.00163269 C35.2819423 68.38027659 35.22894788 72.75569699 35.1605835 77.13372803 C35.10104668 81.61573748 35.09863061 86.09772953 35.09375 90.58007812 C35.08767074 95.60656582 35.07664083 100.63223095 35.01638794 105.65840149 C35.00859818 106.41578613 35.00080841 107.17317078 34.99278259 107.95350647 C34.9706807 109.99861231 34.94342135 112.04366057 34.915802 114.08869934 C34.66357039 116.89236022 34.66357039 116.89236022 36 118 C37.59513893 118.12272849 39.19554932 118.17781043 40.79516602 118.20532227 C42.32664024 118.2352401 42.32664024 118.2352401 43.88905334 118.26576233 C44.9994548 118.28247482 46.10985626 118.29918732 47.25390625 118.31640625 C48.38448959 118.33718735 49.51507294 118.35796844 50.67991638 118.37937927 C54.30737985 118.44499797 57.93491833 118.50381677 61.5625 118.5625 C64.01498186 118.60567351 66.467456 118.6492874 68.91992188 118.69335938 C74.94653427 118.80069184 80.97322201 118.9024349 87 119 C89.12094354 123.24188707 88.22940069 128.83940718 88.25 133.5 C88.270625 134.66660156 88.29125 135.83320313 88.3125 137.03515625 C88.32023437 138.70384766 88.32023437 138.70384766 88.328125 140.40625 C88.3374707 141.43041016 88.34681641 142.45457031 88.35644531 143.50976562 C88.23881836 144.33154297 88.12119141 145.15332031 88 146 C79.60826723 151.59448852 63.20695471 149.13384249 53.22265625 149.09765625 C51.674678 149.09578471 50.12669915 149.0943643 48.57872009 149.09336853 C44.55935957 149.0896012 40.54003681 149.07982242 36.52069092 149.06866455 C32.39726268 149.05832399 28.27382817 149.05384419 24.15039062 149.04882812 C16.10024334 149.03819322 8.0501264 149.02118897 0 149 C-0.97269197 141.19884199 -1.14254437 133.49847745 -1.12939453 125.64331055 C-1.13114685 124.34290329 -1.13289917 123.04249603 -1.13470459 121.7026825 C-1.13922818 118.16585202 -1.13751103 114.629051 -1.1343255 111.09222007 C-1.13177819 107.3790096 -1.13414577 103.66580151 -1.13571167 99.95259094 C-1.13752533 93.72481843 -1.13514698 87.49705781 -1.13037109 81.26928711 C-1.12491805 74.07554477 -1.12670191 66.88183074 -1.1321975 59.68808907 C-1.13673727 53.49677529 -1.13737529 47.30547002 -1.13475883 41.11415511 C-1.13320236 37.4225158 -1.13298527 33.73088978 -1.13629532 30.03925133 C-1.13972388 25.92938943 -1.1349702 21.81957633 -1.12939453 17.7097168 C-1.13141876 16.49040466 -1.13344299 15.27109253 -1.13552856 14.01483154 C-1.13270874 12.89491318 -1.12988892 11.77499481 -1.12698364 10.62113953 C-1.12660662 9.6505746 -1.12622959 8.68000967 -1.12584114 7.68003368 C-1.00114616 5.02440967 -0.59266524 2.58797323 0 0 Z " fill="#EA692C" transform="translate(6,10)"/>
<path d="M0 0 C58.41190502 -0.17653027 58.41190502 -0.17653027 76.5625 0.4375 C77.7582666 0.47673584 78.9540332 0.51597168 80.18603516 0.55639648 C87.86219869 0.86219869 87.86219869 0.86219869 89 2 C89.09812306 3.5745653 89.12631898 5.1535358 89.12698364 6.7311554 C89.13121338 8.26751648 89.13121338 8.26751648 89.13552856 9.83491516 C89.13249222 11.53565437 89.13249222 11.53565437 89.12939453 13.27075195 C89.13202301 15.05157669 89.13202301 15.05157669 89.13470459 16.86837769 C89.13836646 20.14023173 89.13748482 23.41204568 89.1343255 26.68389916 C89.13179351 30.12188314 89.13414281 33.55986443 89.13571167 36.99784851 C89.13753556 42.79276 89.13512619 48.5876588 89.13037109 54.38256836 C89.12497675 61.0322137 89.12665462 67.68182816 89.1321975 74.33147269 C89.13678118 80.06424478 89.13735238 85.79700771 89.13475883 91.52978104 C89.1332183 94.94201706 89.13293888 98.35423874 89.13629532 101.76647377 C89.14647607 116.87707296 88.96491544 131.91753952 88 147 C84.43932301 143.48478317 81.18613903 139.89086538 78.125 135.9375 C77.43966187 135.05904419 77.43966187 135.05904419 76.74047852 134.1628418 C54.71731599 105.79124906 54.71731599 105.79124906 54.5859375 96.35546875 C54.5568203 95.05030807 54.5568203 95.05030807 54.52711487 93.71878052 C54.46661248 90.87512112 54.42043848 88.0314368 54.375 85.1875 C54.33717482 83.23916656 54.29884247 81.29084291 54.26000977 79.3425293 C53.96135897 63.55926477 53.9198672 47.7861625 54 32 C36.18 32 18.36 32 0 32 C0 21.44 0 10.88 0 0 Z " fill="#EB692C" transform="translate(82,64)"/>
</svg>
